G04 EAGLE Gerber RS-274X export*
G75*
%MOMM*%
%FSLAX34Y34*%
%LPD*%
%INBottom Copper*%
%IPPOS*%
%AMOC8*
5,1,8,0,0,1.08239X$1,22.5*%
G01*
%ADD10C,2.184400*%
%ADD11C,1.790700*%
%ADD12C,1.000000*%

G36*
X250724Y10156D02*
X250724Y10156D01*
X250726Y10156D01*
X250726Y10158D01*
X250727Y10160D01*
X250726Y10161D01*
X250726Y10164D01*
X247870Y13019D01*
X244229Y19326D01*
X242345Y26359D01*
X242345Y33641D01*
X244229Y40674D01*
X247870Y46981D01*
X253019Y52130D01*
X259326Y55771D01*
X266359Y57655D01*
X273641Y57655D01*
X280674Y55771D01*
X286981Y52130D01*
X289836Y49274D01*
X289838Y49274D01*
X289839Y49273D01*
X289841Y49274D01*
X289843Y49274D01*
X289843Y49276D01*
X289845Y49278D01*
X289845Y550722D01*
X289844Y550724D01*
X289844Y550726D01*
X289842Y550726D01*
X289840Y550727D01*
X289839Y550726D01*
X289836Y550726D01*
X286981Y547870D01*
X280674Y544229D01*
X273641Y542345D01*
X266359Y542345D01*
X259326Y544229D01*
X253019Y547870D01*
X247870Y553019D01*
X244229Y559326D01*
X242345Y566359D01*
X242345Y573641D01*
X244229Y580674D01*
X247870Y586981D01*
X250726Y589836D01*
X250726Y589838D01*
X250727Y589839D01*
X250726Y589841D01*
X250726Y589843D01*
X250724Y589843D01*
X250722Y589845D01*
X49278Y589845D01*
X49276Y589844D01*
X49274Y589844D01*
X49274Y589842D01*
X49273Y589840D01*
X49274Y589839D01*
X49274Y589836D01*
X52130Y586981D01*
X55771Y580674D01*
X57655Y573641D01*
X57655Y566359D01*
X55771Y559326D01*
X52130Y553019D01*
X46981Y547870D01*
X40674Y544229D01*
X33641Y542345D01*
X26359Y542345D01*
X19326Y544229D01*
X13019Y547870D01*
X10164Y550726D01*
X10162Y550726D01*
X10161Y550727D01*
X10159Y550726D01*
X10157Y550726D01*
X10157Y550724D01*
X10155Y550722D01*
X10155Y49278D01*
X10156Y49276D01*
X10156Y49274D01*
X10158Y49274D01*
X10160Y49273D01*
X10161Y49274D01*
X10162Y49274D01*
X10164Y49274D01*
X13019Y52130D01*
X19326Y55771D01*
X26359Y57655D01*
X33641Y57655D01*
X40674Y55771D01*
X46981Y52130D01*
X52130Y46981D01*
X55771Y40674D01*
X57655Y33641D01*
X57655Y26359D01*
X55771Y19326D01*
X52130Y13019D01*
X49274Y10164D01*
X49274Y10162D01*
X49273Y10161D01*
X49274Y10159D01*
X49274Y10157D01*
X49276Y10157D01*
X49278Y10155D01*
X250722Y10155D01*
X250724Y10156D01*
G37*
%LPC*%
G36*
X125730Y136783D02*
X125730Y136783D01*
X117866Y138890D01*
X110816Y142960D01*
X105060Y148716D01*
X100990Y155766D01*
X98883Y163630D01*
X98883Y171770D01*
X99748Y174999D01*
X99747Y175000D01*
X99745Y175004D01*
X99744Y175004D01*
X99743Y175005D01*
X75328Y175005D01*
X66141Y178810D01*
X59110Y185841D01*
X55305Y195028D01*
X55305Y499881D01*
X55236Y504673D01*
X55304Y504845D01*
X55304Y504846D01*
X55305Y504847D01*
X55305Y505031D01*
X57139Y509459D01*
X58910Y513914D01*
X59038Y514046D01*
X59038Y514047D01*
X59039Y514048D01*
X59110Y514218D01*
X62498Y517606D01*
X65840Y521045D01*
X66009Y521118D01*
X66010Y521119D01*
X66011Y521119D01*
X66141Y521249D01*
X70569Y523083D01*
X70569Y523084D01*
X70569Y523083D01*
X74971Y524981D01*
X75156Y524984D01*
X75157Y524985D01*
X75158Y524984D01*
X75328Y525055D01*
X80121Y525055D01*
X116989Y525582D01*
X116990Y525583D01*
X116991Y525583D01*
X123966Y529610D01*
X131830Y531717D01*
X139970Y531717D01*
X147834Y529610D01*
X148598Y529169D01*
X148601Y529170D01*
X148603Y529169D01*
X149366Y529610D01*
X157230Y531717D01*
X165370Y531717D01*
X173234Y529610D01*
X180284Y525540D01*
X186040Y519784D01*
X190110Y512734D01*
X192217Y504870D01*
X192217Y496730D01*
X190110Y488866D01*
X186484Y482585D01*
X186484Y482584D01*
X186483Y482583D01*
X186483Y461551D01*
X186485Y461550D01*
X186485Y461548D01*
X196024Y452009D01*
X196025Y452009D01*
X196026Y452008D01*
X202734Y450210D01*
X209784Y446140D01*
X215540Y440384D01*
X219610Y433334D01*
X221717Y425470D01*
X221717Y417330D01*
X219610Y409466D01*
X215540Y402416D01*
X209784Y396660D01*
X203280Y392905D01*
X203278Y392899D01*
X203278Y392898D01*
X204368Y391011D01*
X206341Y383649D01*
X206341Y358119D01*
X204368Y350757D01*
X200557Y344156D01*
X195167Y338766D01*
X188566Y334955D01*
X181203Y332982D01*
X173581Y332982D01*
X166218Y334955D01*
X159617Y338766D01*
X154227Y344156D01*
X152504Y347140D01*
X152503Y347140D01*
X152503Y347141D01*
X152501Y347141D01*
X152498Y347142D01*
X152497Y347140D01*
X152496Y347140D01*
X150773Y344156D01*
X145383Y338766D01*
X138782Y334955D01*
X131419Y332982D01*
X123797Y332982D01*
X116434Y334955D01*
X109833Y338766D01*
X105304Y343295D01*
X105302Y343295D01*
X105301Y343297D01*
X105299Y343295D01*
X105297Y343296D01*
X105297Y343293D01*
X105295Y343292D01*
X105295Y327577D01*
X105300Y327572D01*
X105300Y327573D01*
X105300Y327572D01*
X111356Y327572D01*
X118402Y324653D01*
X123795Y319260D01*
X126714Y312214D01*
X126714Y304586D01*
X123795Y297540D01*
X118402Y292147D01*
X111356Y289228D01*
X105300Y289228D01*
X105295Y289223D01*
X105296Y289223D01*
X105295Y289223D01*
X105295Y273508D01*
X105296Y273507D01*
X105296Y273505D01*
X105298Y273505D01*
X105300Y273503D01*
X105300Y273504D01*
X105301Y273504D01*
X105302Y273505D01*
X105304Y273505D01*
X109833Y278034D01*
X116434Y281845D01*
X123797Y283818D01*
X131419Y283818D01*
X138782Y281845D01*
X145383Y278034D01*
X150773Y272644D01*
X152496Y269660D01*
X152497Y269660D01*
X152497Y269659D01*
X152499Y269659D01*
X152500Y269658D01*
X152501Y269658D01*
X152502Y269658D01*
X152503Y269660D01*
X152504Y269660D01*
X154227Y272644D01*
X159617Y278034D01*
X166218Y281845D01*
X173581Y283818D01*
X181203Y283818D01*
X188566Y281845D01*
X195167Y278034D01*
X200557Y272644D01*
X204368Y266043D01*
X206341Y258681D01*
X206341Y233151D01*
X204368Y225789D01*
X203248Y223849D01*
X203248Y223848D01*
X203247Y223847D01*
X203247Y223846D01*
X203247Y188778D01*
X203249Y188777D01*
X203249Y188775D01*
X205340Y186684D01*
X209410Y179634D01*
X211517Y171770D01*
X211517Y163630D01*
X209410Y155766D01*
X205340Y148716D01*
X199584Y142960D01*
X192534Y138890D01*
X184670Y136783D01*
X176530Y136783D01*
X168666Y138890D01*
X161616Y142960D01*
X155860Y148716D01*
X155204Y149852D01*
X155203Y149853D01*
X155203Y149854D01*
X155201Y149853D01*
X155198Y149854D01*
X155197Y149853D01*
X155196Y149852D01*
X154540Y148716D01*
X148784Y142960D01*
X141734Y138890D01*
X133870Y136783D01*
X125730Y136783D01*
G37*
%LPD*%
%LPC*%
G36*
X193644Y289228D02*
X193644Y289228D01*
X186598Y292147D01*
X181205Y297540D01*
X178286Y304586D01*
X178286Y312214D01*
X181205Y319260D01*
X186598Y324653D01*
X193644Y327572D01*
X201272Y327572D01*
X208318Y324653D01*
X213711Y319260D01*
X216630Y312214D01*
X216630Y304586D01*
X213711Y297540D01*
X208318Y292147D01*
X201272Y289228D01*
X193644Y289228D01*
G37*
%LPD*%
G36*
X138597Y441131D02*
X138597Y441131D01*
X138598Y441131D01*
X138599Y441134D01*
X138600Y441137D01*
X136493Y446224D01*
X136493Y469878D01*
X136488Y469883D01*
X136488Y469882D01*
X136488Y469883D01*
X131830Y469883D01*
X123966Y471990D01*
X117719Y475597D01*
X117718Y475596D01*
X117717Y475597D01*
X117411Y475593D01*
X117409Y475593D01*
X117064Y475588D01*
X117062Y475588D01*
X116716Y475583D01*
X116714Y475583D01*
X116369Y475578D01*
X116367Y475578D01*
X116022Y475573D01*
X116020Y475573D01*
X115675Y475568D01*
X115673Y475568D01*
X115328Y475563D01*
X115326Y475563D01*
X115325Y475563D01*
X114980Y475558D01*
X114978Y475558D01*
X114633Y475553D01*
X114631Y475553D01*
X114286Y475548D01*
X114284Y475548D01*
X113939Y475543D01*
X113937Y475543D01*
X113592Y475538D01*
X113589Y475538D01*
X113244Y475533D01*
X113242Y475533D01*
X112897Y475528D01*
X112895Y475528D01*
X112550Y475523D01*
X112548Y475523D01*
X112203Y475518D01*
X112201Y475518D01*
X111856Y475513D01*
X111853Y475513D01*
X111508Y475508D01*
X111506Y475508D01*
X111161Y475503D01*
X111159Y475503D01*
X110814Y475499D01*
X110812Y475499D01*
X110812Y475498D01*
X110467Y475494D01*
X110465Y475494D01*
X110120Y475489D01*
X110117Y475489D01*
X109772Y475484D01*
X109770Y475484D01*
X109425Y475479D01*
X109423Y475479D01*
X109078Y475474D01*
X109076Y475474D01*
X108731Y475469D01*
X108729Y475469D01*
X108383Y475464D01*
X108381Y475464D01*
X108036Y475459D01*
X108034Y475459D01*
X107689Y475454D01*
X107687Y475454D01*
X107342Y475449D01*
X107340Y475449D01*
X106995Y475444D01*
X106993Y475444D01*
X106992Y475444D01*
X106647Y475439D01*
X106645Y475439D01*
X106300Y475434D01*
X106298Y475434D01*
X105953Y475429D01*
X105951Y475429D01*
X105606Y475424D01*
X105604Y475424D01*
X105300Y475420D01*
X105295Y475415D01*
X105295Y450921D01*
X105295Y450920D01*
X105297Y450920D01*
X105300Y450916D01*
X105300Y450917D01*
X105301Y450916D01*
X110530Y452317D01*
X118670Y452317D01*
X126534Y450210D01*
X133584Y446140D01*
X138592Y441132D01*
X138594Y441131D01*
X138597Y441130D01*
X138597Y441131D01*
G37*
G36*
X152503Y394628D02*
X152503Y394628D01*
X152504Y394628D01*
X154227Y397612D01*
X159617Y403002D01*
X164191Y405643D01*
X164192Y405646D01*
X164194Y405647D01*
X164193Y405648D01*
X164193Y405649D01*
X164193Y405650D01*
X161990Y409466D01*
X159883Y417330D01*
X159883Y417451D01*
X159881Y417452D01*
X159881Y417454D01*
X142629Y434707D01*
X142626Y434707D01*
X142623Y434708D01*
X142623Y434707D01*
X142622Y434707D01*
X142622Y434704D01*
X142621Y434701D01*
X143410Y433334D01*
X145208Y426626D01*
X145209Y426625D01*
X145209Y426624D01*
X147626Y424207D01*
X151431Y415020D01*
X151431Y396473D01*
X151432Y396472D01*
X151432Y396471D01*
X152496Y394628D01*
X152497Y394628D01*
X152497Y394627D01*
X152499Y394627D01*
X152502Y394626D01*
X152503Y394628D01*
G37*
G36*
X153252Y209189D02*
X153252Y209189D01*
X153253Y209189D01*
X153254Y209192D01*
X153257Y209194D01*
X153257Y220867D01*
X153256Y220868D01*
X153256Y220870D01*
X152504Y222172D01*
X152503Y222172D01*
X152503Y222173D01*
X152501Y222173D01*
X152498Y222174D01*
X152497Y222172D01*
X152496Y222172D01*
X150773Y219188D01*
X148470Y216885D01*
X148470Y216879D01*
X148470Y216878D01*
X151190Y214159D01*
X153247Y209192D01*
X153250Y209191D01*
X153251Y209189D01*
X153252Y209189D01*
G37*
D10*
X161300Y500800D03*
X135900Y500800D03*
X129800Y167700D03*
X180600Y167700D03*
X114600Y421400D03*
X190800Y421400D03*
D11*
X127608Y379838D02*
X127608Y361931D01*
X127608Y254870D02*
X127608Y236963D01*
X177392Y361931D02*
X177392Y379838D01*
X177392Y254870D02*
X177392Y236963D01*
D12*
X161488Y451196D02*
X161488Y499964D01*
X161488Y451196D02*
X190444Y422240D01*
X161488Y499964D02*
X161300Y500800D01*
X190444Y422240D02*
X190800Y421400D01*
X130000Y200000D02*
X130000Y170000D01*
X130000Y200000D02*
X80300Y200000D01*
X135900Y500800D02*
X135846Y500855D01*
X80300Y500060D01*
X80300Y200000D01*
X130000Y170000D02*
X129800Y167700D01*
X178252Y169256D02*
X178252Y245456D01*
X178252Y169256D02*
X179776Y167732D01*
X178252Y245456D02*
X177392Y245916D01*
X179776Y167732D02*
X180600Y167700D01*
X126436Y371948D02*
X126436Y410048D01*
X115768Y420716D01*
X126436Y371948D02*
X127608Y370884D01*
X115768Y420716D02*
X114600Y421400D01*
M02*
