G04 EAGLE Gerber RS-274X export*
G75*
%MOMM*%
%FSLAX34Y34*%
%LPD*%
%IN*%
%IPPOS*%
%AMOC8*
5,1,8,0,0,1.08239X$1,22.5*%
G01*
%ADD10C,0.254000*%


D10*
X0Y30000D02*
X114Y27385D01*
X456Y24791D01*
X1022Y22235D01*
X1809Y19739D01*
X2811Y17321D01*
X4019Y15000D01*
X5425Y12793D01*
X7019Y10716D01*
X8787Y8787D01*
X10716Y7019D01*
X12793Y5425D01*
X15000Y4019D01*
X17321Y2811D01*
X19739Y1809D01*
X22235Y1022D01*
X24791Y456D01*
X27385Y114D01*
X30000Y0D01*
X270000Y0D01*
X272615Y114D01*
X275209Y456D01*
X277765Y1022D01*
X280261Y1809D01*
X282679Y2811D01*
X285000Y4019D01*
X287207Y5425D01*
X289284Y7019D01*
X291213Y8787D01*
X292981Y10716D01*
X294575Y12793D01*
X295981Y15000D01*
X297189Y17321D01*
X298191Y19739D01*
X298978Y22235D01*
X299544Y24791D01*
X299886Y27385D01*
X300000Y30000D01*
X300000Y570000D01*
X299886Y572615D01*
X299544Y575209D01*
X298978Y577765D01*
X298191Y580261D01*
X297189Y582679D01*
X295981Y585000D01*
X294575Y587207D01*
X292981Y589284D01*
X291213Y591213D01*
X289284Y592981D01*
X287207Y594575D01*
X285000Y595981D01*
X282679Y597189D01*
X280261Y598191D01*
X277765Y598978D01*
X275209Y599544D01*
X272615Y599886D01*
X270000Y600000D01*
X30000Y600000D01*
X27385Y599886D01*
X24791Y599544D01*
X22235Y598978D01*
X19739Y598191D01*
X17321Y597189D01*
X15000Y595981D01*
X12793Y594575D01*
X10716Y592981D01*
X8787Y591213D01*
X7019Y589284D01*
X5425Y587207D01*
X4019Y585000D01*
X2811Y582679D01*
X1809Y580261D01*
X1022Y577765D01*
X456Y575209D01*
X114Y572615D01*
X0Y570000D01*
X0Y30000D01*
X287500Y29427D02*
X287425Y28284D01*
X287276Y27148D01*
X287052Y26024D01*
X286755Y24917D01*
X286387Y23832D01*
X285949Y22774D01*
X285442Y21746D01*
X284869Y20754D01*
X284232Y19801D01*
X283535Y18892D01*
X282779Y18031D01*
X281969Y17221D01*
X281108Y16465D01*
X280199Y15768D01*
X279246Y15131D01*
X278254Y14558D01*
X277226Y14051D01*
X276168Y13613D01*
X275083Y13245D01*
X273976Y12948D01*
X272852Y12725D01*
X271716Y12575D01*
X270573Y12500D01*
X269427Y12500D01*
X268284Y12575D01*
X267148Y12725D01*
X266024Y12948D01*
X264917Y13245D01*
X263832Y13613D01*
X262774Y14051D01*
X261746Y14558D01*
X260754Y15131D01*
X259801Y15768D01*
X258892Y16465D01*
X258031Y17221D01*
X257221Y18031D01*
X256465Y18892D01*
X255768Y19801D01*
X255131Y20754D01*
X254558Y21746D01*
X254051Y22774D01*
X253613Y23832D01*
X253245Y24917D01*
X252948Y26024D01*
X252725Y27148D01*
X252575Y28284D01*
X252500Y29427D01*
X252500Y30573D01*
X252575Y31716D01*
X252725Y32852D01*
X252948Y33976D01*
X253245Y35083D01*
X253613Y36168D01*
X254051Y37226D01*
X254558Y38254D01*
X255131Y39246D01*
X255768Y40199D01*
X256465Y41108D01*
X257221Y41969D01*
X258031Y42779D01*
X258892Y43535D01*
X259801Y44232D01*
X260754Y44869D01*
X261746Y45442D01*
X262774Y45949D01*
X263832Y46387D01*
X264917Y46755D01*
X266024Y47052D01*
X267148Y47276D01*
X268284Y47425D01*
X269427Y47500D01*
X270573Y47500D01*
X271716Y47425D01*
X272852Y47276D01*
X273976Y47052D01*
X275083Y46755D01*
X276168Y46387D01*
X277226Y45949D01*
X278254Y45442D01*
X279246Y44869D01*
X280199Y44232D01*
X281108Y43535D01*
X281969Y42779D01*
X282779Y41969D01*
X283535Y41108D01*
X284232Y40199D01*
X284869Y39246D01*
X285442Y38254D01*
X285949Y37226D01*
X286387Y36168D01*
X286755Y35083D01*
X287052Y33976D01*
X287276Y32852D01*
X287425Y31716D01*
X287500Y30573D01*
X287500Y29427D01*
X47500Y29427D02*
X47425Y28284D01*
X47276Y27148D01*
X47052Y26024D01*
X46755Y24917D01*
X46387Y23832D01*
X45949Y22774D01*
X45442Y21746D01*
X44869Y20754D01*
X44232Y19801D01*
X43535Y18892D01*
X42779Y18031D01*
X41969Y17221D01*
X41108Y16465D01*
X40199Y15768D01*
X39246Y15131D01*
X38254Y14558D01*
X37226Y14051D01*
X36168Y13613D01*
X35083Y13245D01*
X33976Y12948D01*
X32852Y12725D01*
X31716Y12575D01*
X30573Y12500D01*
X29427Y12500D01*
X28284Y12575D01*
X27148Y12725D01*
X26024Y12948D01*
X24917Y13245D01*
X23832Y13613D01*
X22774Y14051D01*
X21746Y14558D01*
X20754Y15131D01*
X19801Y15768D01*
X18892Y16465D01*
X18031Y17221D01*
X17221Y18031D01*
X16465Y18892D01*
X15768Y19801D01*
X15131Y20754D01*
X14558Y21746D01*
X14051Y22774D01*
X13613Y23832D01*
X13245Y24917D01*
X12948Y26024D01*
X12725Y27148D01*
X12575Y28284D01*
X12500Y29427D01*
X12500Y30573D01*
X12575Y31716D01*
X12725Y32852D01*
X12948Y33976D01*
X13245Y35083D01*
X13613Y36168D01*
X14051Y37226D01*
X14558Y38254D01*
X15131Y39246D01*
X15768Y40199D01*
X16465Y41108D01*
X17221Y41969D01*
X18031Y42779D01*
X18892Y43535D01*
X19801Y44232D01*
X20754Y44869D01*
X21746Y45442D01*
X22774Y45949D01*
X23832Y46387D01*
X24917Y46755D01*
X26024Y47052D01*
X27148Y47276D01*
X28284Y47425D01*
X29427Y47500D01*
X30573Y47500D01*
X31716Y47425D01*
X32852Y47276D01*
X33976Y47052D01*
X35083Y46755D01*
X36168Y46387D01*
X37226Y45949D01*
X38254Y45442D01*
X39246Y44869D01*
X40199Y44232D01*
X41108Y43535D01*
X41969Y42779D01*
X42779Y41969D01*
X43535Y41108D01*
X44232Y40199D01*
X44869Y39246D01*
X45442Y38254D01*
X45949Y37226D01*
X46387Y36168D01*
X46755Y35083D01*
X47052Y33976D01*
X47276Y32852D01*
X47425Y31716D01*
X47500Y30573D01*
X47500Y29427D01*
X47500Y569427D02*
X47425Y568284D01*
X47276Y567148D01*
X47052Y566024D01*
X46755Y564917D01*
X46387Y563832D01*
X45949Y562774D01*
X45442Y561746D01*
X44869Y560754D01*
X44232Y559801D01*
X43535Y558892D01*
X42779Y558031D01*
X41969Y557221D01*
X41108Y556465D01*
X40199Y555768D01*
X39246Y555131D01*
X38254Y554558D01*
X37226Y554051D01*
X36168Y553613D01*
X35083Y553245D01*
X33976Y552948D01*
X32852Y552725D01*
X31716Y552575D01*
X30573Y552500D01*
X29427Y552500D01*
X28284Y552575D01*
X27148Y552725D01*
X26024Y552948D01*
X24917Y553245D01*
X23832Y553613D01*
X22774Y554051D01*
X21746Y554558D01*
X20754Y555131D01*
X19801Y555768D01*
X18892Y556465D01*
X18031Y557221D01*
X17221Y558031D01*
X16465Y558892D01*
X15768Y559801D01*
X15131Y560754D01*
X14558Y561746D01*
X14051Y562774D01*
X13613Y563832D01*
X13245Y564917D01*
X12948Y566024D01*
X12725Y567148D01*
X12575Y568284D01*
X12500Y569427D01*
X12500Y570573D01*
X12575Y571716D01*
X12725Y572852D01*
X12948Y573976D01*
X13245Y575083D01*
X13613Y576168D01*
X14051Y577226D01*
X14558Y578254D01*
X15131Y579246D01*
X15768Y580199D01*
X16465Y581108D01*
X17221Y581969D01*
X18031Y582779D01*
X18892Y583535D01*
X19801Y584232D01*
X20754Y584869D01*
X21746Y585442D01*
X22774Y585949D01*
X23832Y586387D01*
X24917Y586755D01*
X26024Y587052D01*
X27148Y587276D01*
X28284Y587425D01*
X29427Y587500D01*
X30573Y587500D01*
X31716Y587425D01*
X32852Y587276D01*
X33976Y587052D01*
X35083Y586755D01*
X36168Y586387D01*
X37226Y585949D01*
X38254Y585442D01*
X39246Y584869D01*
X40199Y584232D01*
X41108Y583535D01*
X41969Y582779D01*
X42779Y581969D01*
X43535Y581108D01*
X44232Y580199D01*
X44869Y579246D01*
X45442Y578254D01*
X45949Y577226D01*
X46387Y576168D01*
X46755Y575083D01*
X47052Y573976D01*
X47276Y572852D01*
X47425Y571716D01*
X47500Y570573D01*
X47500Y569427D01*
X287500Y569427D02*
X287425Y568284D01*
X287276Y567148D01*
X287052Y566024D01*
X286755Y564917D01*
X286387Y563832D01*
X285949Y562774D01*
X285442Y561746D01*
X284869Y560754D01*
X284232Y559801D01*
X283535Y558892D01*
X282779Y558031D01*
X281969Y557221D01*
X281108Y556465D01*
X280199Y555768D01*
X279246Y555131D01*
X278254Y554558D01*
X277226Y554051D01*
X276168Y553613D01*
X275083Y553245D01*
X273976Y552948D01*
X272852Y552725D01*
X271716Y552575D01*
X270573Y552500D01*
X269427Y552500D01*
X268284Y552575D01*
X267148Y552725D01*
X266024Y552948D01*
X264917Y553245D01*
X263832Y553613D01*
X262774Y554051D01*
X261746Y554558D01*
X260754Y555131D01*
X259801Y555768D01*
X258892Y556465D01*
X258031Y557221D01*
X257221Y558031D01*
X256465Y558892D01*
X255768Y559801D01*
X255131Y560754D01*
X254558Y561746D01*
X254051Y562774D01*
X253613Y563832D01*
X253245Y564917D01*
X252948Y566024D01*
X252725Y567148D01*
X252575Y568284D01*
X252500Y569427D01*
X252500Y570573D01*
X252575Y571716D01*
X252725Y572852D01*
X252948Y573976D01*
X253245Y575083D01*
X253613Y576168D01*
X254051Y577226D01*
X254558Y578254D01*
X255131Y579246D01*
X255768Y580199D01*
X256465Y581108D01*
X257221Y581969D01*
X258031Y582779D01*
X258892Y583535D01*
X259801Y584232D01*
X260754Y584869D01*
X261746Y585442D01*
X262774Y585949D01*
X263832Y586387D01*
X264917Y586755D01*
X266024Y587052D01*
X267148Y587276D01*
X268284Y587425D01*
X269427Y587500D01*
X270573Y587500D01*
X271716Y587425D01*
X272852Y587276D01*
X273976Y587052D01*
X275083Y586755D01*
X276168Y586387D01*
X277226Y585949D01*
X278254Y585442D01*
X279246Y584869D01*
X280199Y584232D01*
X281108Y583535D01*
X281969Y582779D01*
X282779Y581969D01*
X283535Y581108D01*
X284232Y580199D01*
X284869Y579246D01*
X285442Y578254D01*
X285949Y577226D01*
X286387Y576168D01*
X286755Y575083D01*
X287052Y573976D01*
X287276Y572852D01*
X287425Y571716D01*
X287500Y570573D01*
X287500Y569427D01*
X107148Y299383D02*
X106364Y299452D01*
X105589Y299588D01*
X104828Y299792D01*
X104088Y300061D01*
X103374Y300394D01*
X102693Y300788D01*
X102048Y301240D01*
X101444Y301746D01*
X100888Y302302D01*
X100382Y302906D01*
X99930Y303551D01*
X99536Y304232D01*
X99203Y304946D01*
X98934Y305686D01*
X98730Y306447D01*
X98594Y307222D01*
X98525Y308006D01*
X98525Y308794D01*
X98594Y309578D01*
X98730Y310354D01*
X98934Y311114D01*
X99203Y311854D01*
X99536Y312568D01*
X99930Y313249D01*
X100382Y313894D01*
X100888Y314498D01*
X101444Y315054D01*
X102048Y315560D01*
X102693Y316012D01*
X103374Y316406D01*
X104088Y316739D01*
X104828Y317008D01*
X105589Y317212D01*
X106364Y317348D01*
X107148Y317417D01*
X107936Y317417D01*
X108720Y317348D01*
X109496Y317212D01*
X110256Y317008D01*
X110996Y316739D01*
X111710Y316406D01*
X112391Y316012D01*
X113036Y315560D01*
X113640Y315054D01*
X114196Y314498D01*
X114702Y313894D01*
X115154Y313249D01*
X115548Y312568D01*
X115881Y311854D01*
X116150Y311114D01*
X116354Y310354D01*
X116490Y309578D01*
X116559Y308794D01*
X116559Y308006D01*
X116490Y307222D01*
X116354Y306447D01*
X116150Y305686D01*
X115881Y304946D01*
X115548Y304232D01*
X115154Y303551D01*
X114702Y302906D01*
X114196Y302302D01*
X113640Y301746D01*
X113036Y301240D01*
X112391Y300788D01*
X111710Y300394D01*
X110996Y300061D01*
X110256Y299792D01*
X109496Y299588D01*
X108720Y299452D01*
X107936Y299383D01*
X107148Y299383D01*
X197064Y299383D02*
X196280Y299452D01*
X195505Y299588D01*
X194744Y299792D01*
X194004Y300061D01*
X193290Y300394D01*
X192609Y300788D01*
X191964Y301240D01*
X191360Y301746D01*
X190804Y302302D01*
X190298Y302906D01*
X189846Y303551D01*
X189452Y304232D01*
X189119Y304946D01*
X188850Y305686D01*
X188646Y306447D01*
X188510Y307222D01*
X188441Y308006D01*
X188441Y308794D01*
X188510Y309578D01*
X188646Y310354D01*
X188850Y311114D01*
X189119Y311854D01*
X189452Y312568D01*
X189846Y313249D01*
X190298Y313894D01*
X190804Y314498D01*
X191360Y315054D01*
X191964Y315560D01*
X192609Y316012D01*
X193290Y316406D01*
X194004Y316739D01*
X194744Y317008D01*
X195505Y317212D01*
X196280Y317348D01*
X197064Y317417D01*
X197852Y317417D01*
X198636Y317348D01*
X199412Y317212D01*
X200172Y317008D01*
X200912Y316739D01*
X201626Y316406D01*
X202307Y316012D01*
X202952Y315560D01*
X203556Y315054D01*
X204112Y314498D01*
X204618Y313894D01*
X205070Y313249D01*
X205464Y312568D01*
X205797Y311854D01*
X206066Y311114D01*
X206270Y310354D01*
X206406Y309578D01*
X206475Y308794D01*
X206475Y308006D01*
X206406Y307222D01*
X206270Y306447D01*
X206066Y305686D01*
X205797Y304946D01*
X205464Y304232D01*
X205070Y303551D01*
X204618Y302906D01*
X204112Y302302D01*
X203556Y301746D01*
X202952Y301240D01*
X202307Y300788D01*
X201626Y300394D01*
X200912Y300061D01*
X200172Y299792D01*
X199412Y299588D01*
X198636Y299452D01*
X197852Y299383D01*
X197064Y299383D01*
M02*
